# xmcd
#
# Track frame offsets: 
#        150
#        11130
#        22775
#        35065
#        45235
#        57140
#        69292
#        79197
#        86742
#        95420
#        107432
#        117572
#        127572
#        137287
#        147182
#        157387
#
# Disc length: 2245 seconds
#
# Revision: 1
# Processed by: cddbd v1.5.2PL0 Copyright (c) Steve Scherf et al.
# Submitted via: ExactAudioCopyFreeDBPlugin 1.0
#
DISCID=c508c310
DTITLE=Johnny Cash - Greatest
DYEAR=1997
DGENRE=Country
TTITLE0=Cry! Cry Cry!
TTITLE1=I`m So Doggone Lonesome
TTITLE2=Next in Line
TTITLE3=There You Go
TTITLE4=Home of the Blues
TTITLE5=Give My Love To Rose
TTITLE6=Ballad of a teenage Queen
TTITLE7=Come in Stranger
TTITLE8=Katy Too
TTITLE9=You Are the Nearest Thing To Haven
TTITLE10=Straight A`s in Love
TTITLE11=Get Rythm
TTITLE12=Rock Island Line
TTITLE13=Hey Porter
TTITLE14=The Way of a Woman in Love
TTITLE15=Mean Eyed Cat
EXTD=
EXTT0=
EXTT1=
EXTT2=
EXTT3=
EXTT4=
EXTT5=
EXTT6=
EXTT7=
EXTT8=
EXTT9=
EXTT10=
EXTT11=
EXTT12=
EXTT13=
EXTT14=
EXTT15=
PLAYORDER=
